<svg xmlns="http://www.w3.org/2000/svg" width="70" height="70" viewBox="20 20 30 30" style="width: 100%; height: 100%;"><desc>Made with illustrio</desc>

<g class="content">
  <g class="white-layer">
  <g fill="#ffffff" fill-rule="evenodd" stroke="none">

    <path fill="#ffffff" d="M21.2,5.1 C21.2,5 18.2,3.8 14.7,3.7 C14.9,3 15.3,2.3 15.6,1.8 C16.2,1.3 16.8,1.2 17.6,1.6 C18,1.7 18.3,1.3 18.4,1.1 C18.5,0.7 18.3,0.4 18,0.3 C16.7,-0.1 15.6,0.2 14.8,0.9 C14,1.6 13.5,2.6 13.3,3.7 C12.1,3.7 9.7,4.1 9.7,4.1 C3.6,5.3 0.3,8.9 0.3,14.5 C0.4,22 6.4,28 14,28 C21.4,28 27.6,22 27.6,14.4 C27.6,10 25.3,6.7 21.2,5.1 L21.2,5.1 Z M21.8,10.2 C21.7,10.3 21.3,10.4 21.1,10.4 L16.9,9.4 L14.5,12.5 C14.3,12.8 14.1,12.9 13.9,12.9 C13.9,12.9 13.5,12.9 13.3,12.4 L11.5,9 L6.9,10.3 C6.5,10.4 6.3,10.3 6.2,10.1 C6,9.9 6,9.7 6.2,9.4 L8.6,5.9 C8.7,5.9 11.9,5.1 13.3,4.8 C13.2,5.8 13.3,6.4 13.3,6.4 C13.3,6.7 13.5,7 14,7 L14,7 C14.3,7 14.7,6.7 14.5,6.4 C14.5,6 14.5,5.4 14.7,5 C17.8,5.1 20.4,6 20.6,6.1 L22,9.5 C22,9.7 22,10 21.8,10.2 L21.8,10.2 Z" transform="translate(21 21)" stroke="none"></path>
  </g></g><g class="shifted" transform="matrix(1,0,0,1,1.5,0)" ><g fill="none" fill-rule="evenodd" stroke="none" class="main-fill">

    <path fill="none" d="M21.2,5.1 C21.2,5 18.2,3.8 14.7,3.7 C14.9,3 15.3,2.3 15.6,1.8 C16.2,1.3 16.8,1.2 17.6,1.6 C18,1.7 18.3,1.3 18.4,1.1 C18.5,0.7 18.3,0.4 18,0.3 C16.7,-0.1 15.6,0.2 14.8,0.9 C14,1.6 13.5,2.6 13.3,3.7 C12.1,3.7 9.7,4.1 9.7,4.1 C3.6,5.3 0.3,8.9 0.3,14.5 C0.4,22 6.4,28 14,28 C21.4,28 27.6,22 27.6,14.4 C27.6,10 25.3,6.7 21.2,5.1 L21.2,5.1 Z M21.8,10.2 C21.7,10.3 21.3,10.4 21.1,10.4 L16.9,9.4 L14.5,12.5 C14.3,12.8 14.1,12.9 13.9,12.9 C13.9,12.9 13.5,12.9 13.3,12.4 L11.5,9 L6.9,10.3 C6.5,10.4 6.3,10.3 6.2,10.1 C6,9.9 6,9.7 6.2,9.4 L8.6,5.9 C8.7,5.9 11.9,5.1 13.3,4.8 C13.2,5.8 13.3,6.4 13.3,6.4 C13.3,6.7 13.5,7 14,7 L14,7 C14.3,7 14.7,6.7 14.5,6.4 C14.5,6 14.5,5.4 14.7,5 C17.8,5.1 20.4,6 20.6,6.1 L22,9.5 C22,9.7 22,10 21.8,10.2 L21.8,10.2 Z" transform="translate(21 21)" stroke="none" class="main-fill"></path>
  </g></g><g class="base"><g fill="none" fill-rule="evenodd" stroke="none" class="main-stroke--darken">

    <path fill="none" d="M21.2,5.1 C21.2,5 18.2,3.8 14.7,3.7 C14.9,3 15.3,2.3 15.6,1.8 C16.2,1.3 16.8,1.2 17.6,1.6 C18,1.7 18.3,1.3 18.4,1.1 C18.5,0.7 18.3,0.4 18,0.3 C16.7,-0.1 15.6,0.2 14.8,0.9 C14,1.6 13.5,2.6 13.3,3.7 C12.1,3.7 9.7,4.1 9.7,4.1 C3.6,5.3 0.3,8.9 0.3,14.5 C0.4,22 6.4,28 14,28 C21.4,28 27.6,22 27.6,14.4 C27.6,10 25.3,6.7 21.2,5.1 L21.2,5.1 Z M21.8,10.2 C21.7,10.3 21.3,10.4 21.1,10.4 L16.9,9.4 L14.5,12.5 C14.3,12.8 14.1,12.9 13.9,12.9 C13.9,12.9 13.5,12.9 13.3,12.4 L11.5,9 L6.9,10.3 C6.5,10.4 6.3,10.3 6.2,10.1 C6,9.9 6,9.7 6.2,9.4 L8.6,5.9 C8.7,5.9 11.9,5.1 13.3,4.8 C13.2,5.8 13.3,6.4 13.3,6.4 C13.3,6.7 13.5,7 14,7 L14,7 C14.3,7 14.7,6.7 14.5,6.4 C14.5,6 14.5,5.4 14.7,5 C17.8,5.1 20.4,6 20.6,6.1 L22,9.5 C22,9.7 22,10 21.8,10.2 L21.8,10.2 Z" transform="translate(21 21)" stroke="none" class="main-stroke--darken"></path>
  </g></g></g><style>
          .main-fill {fill: #ff635d;}
          .main-stroke {stroke: #ff635d;}

          .main-fill--darken {fill: #ff1910;}
          .main-stroke--darken {stroke: #ff1910;}

          .main-fill--darkener {fill: #dc0800;}
          .main-stroke--darkener {stroke: #dc0800;}
        </style></svg>